<svg xmlns="http://www.w3.org/2000/svg" xmlns:xlink="http://www.w3.org/1999/xlink" width="214" height="49"><defs><path id="a" d="M0 0h31.396v28.087H0z"/></defs><g fill="none" fill-rule="evenodd"><g transform="translate(158 9)"><rect width="55" height="29" x=".5" y=".5" stroke="#5ED6C1" rx="5"/><path fill="#5ED6C1" fill-rule="nonzero" d="M15.608 20v-4.352h1.6c1.28 0 2.299-.29 3.056-.872.757-.581 1.136-1.453 1.136-2.616v-.064c0-1.173-.376-2.056-1.128-2.648-.752-.592-1.79-.888-3.112-.888h-3.68V20h2.128zm1.552-5.888h-1.552v-3.904h1.552c1.44 0 2.16.63 2.16 1.888v.064c0 .63-.184 1.112-.552 1.448-.368.336-.904.504-1.608.504zM25.048 20V7.76h-1.936V20h1.936zm5.152.16c.64 0 1.187-.136 1.64-.408a2.628 2.628 0 0 0 1.016-1.064V20h1.936v-8.368h-1.936v4.976c0 .63-.187 1.12-.56 1.472-.373.352-.837.528-1.392.528-.565 0-.981-.15-1.248-.448-.267-.299-.4-.763-.4-1.392v-5.136H27.32v5.36c0 1.067.261 1.861.784 2.384.523.523 1.221.784 2.096.784zm9.744 0c1.067 0 1.89-.232 2.472-.696.581-.464.872-1.123.872-1.976 0-.832-.25-1.424-.752-1.776-.501-.352-1.296-.613-2.384-.784-.661-.117-1.115-.25-1.36-.4a.736.736 0 0 1-.368-.672c0-.299.117-.539.352-.72.235-.181.56-.272.976-.272.448 0 .787.09 1.016.272.23.181.387.464.472.848h1.792c-.181-1.685-1.275-2.528-3.28-2.528-.853 0-1.59.221-2.208.664-.619.443-.928 1.059-.928 1.848 0 .779.224 1.352.672 1.72.448.368 1.232.643 2.352.824.65.107 1.112.243 1.384.408.272.165.408.413.408.744 0 .715-.501 1.072-1.504 1.072-.544 0-.944-.112-1.2-.336-.256-.224-.41-.56-.464-1.008H36.44c.043.885.368 1.568.976 2.048s1.45.72 2.528.72z"/></g><g transform="translate(0 .61)"><mask id="b" fill="#fff"><use xlink:href="#a"/></mask><path fill="#FFF" d="M21.404 25.652c0-.52.42-.944.936-.944a.94.94 0 0 1 .935.944.94.94 0 0 1-.935.944.94.94 0 0 1-.936-.944zm0-23.217c0-.52.42-.944.936-.944a.94.94 0 0 1 .935.944.94.94 0 0 1-.935.945.94.94 0 0 1-.936-.945zM1.479 14.045c0-.523.418-.945.936-.945a.94.94 0 0 1 .935.944.94.94 0 0 1-.935.945.94.94 0 0 1-.936-.945zm26.567 0a.94.94 0 0 1 .936-.945.94.94 0 0 1 .935.944.94.94 0 0 1-.935.945.94.94 0 0 1-.936-.945zM8.12 25.651a.94.94 0 0 1 .935-.944.94.94 0 0 1 .936.944.94.94 0 0 1-.936.944.94.94 0 0 1-.935-.944zm0-23.217a.94.94 0 0 1 .935-.944.94.94 0 0 1 .936.944.94.94 0 0 1-.936.945.939.939 0 0 1-.935-.945zm6.641 11.61a.94.94 0 0 1 .936-.945.94.94 0 0 1 .936.944.94.94 0 0 1-.936.945.94.94 0 0 1-.936-.945zM4.27 12.484c.349.422.56.966.56 1.56 0 .592-.211 1.135-.56 1.559l4.377 7.647a2.428 2.428 0 0 1 .82 0l4.376-7.65a2.436 2.436 0 0 1-.558-1.557c0-.593.21-1.136.558-1.558L9.72 5.28l-.254-.444a2.428 2.428 0 0 1-.82 0L4.27 12.483zM22.75 4.835a2.418 2.418 0 0 1-2.676-1.556H11.32a2.422 2.422 0 0 1-.41.713l4.378 7.65a2.417 2.417 0 0 1 2.674 1.556h8.754c.096-.262.235-.504.41-.715l-4.376-7.648zm1.444 19.257c.35.422.56.966.56 1.559a2.425 2.425 0 0 1-2.415 2.435 2.417 2.417 0 0 1-2.265-1.59H11.32a2.415 2.415 0 0 1-2.265 1.59 2.425 2.425 0 0 1-2.414-2.435c0-.593.21-1.137.56-1.56l-4.376-7.647A2.425 2.425 0 0 1 0 14.045a2.426 2.426 0 0 1 2.415-2.437c.14 0 .277.012.41.036l4.376-7.65a2.438 2.438 0 0 1-.56-1.559A2.425 2.425 0 0 1 9.057 0c1.039 0 1.925.662 2.265 1.591h8.754A2.417 2.417 0 0 1 22.34 0a2.425 2.425 0 0 1 2.414 2.435c0 .594-.21 1.138-.559 1.56l4.376 7.649c.133-.024.271-.036.41-.036a2.425 2.425 0 0 1 2.415 2.436 2.425 2.425 0 0 1-2.825 2.4l-4.376 7.649zm2.522-9.204h-8.754a2.416 2.416 0 0 1-2.674 1.556l-4.377 7.65c.174.21.313.45.409.713h8.754a2.417 2.417 0 0 1 2.676-1.557l4.376-7.647a2.44 2.44 0 0 1-.41-.715z" mask="url(#b)"/><path fill="#FFF" d="M49.186 21.063a5.159 5.159 0 0 1-1.86 1.991c-.782.48-1.687.722-2.69.722-1.004 0-1.91-.243-2.69-.722a5.167 5.167 0 0 1-1.862-1.99c-.453-.845-.682-1.816-.682-2.886 0-1.081.23-2.054.682-2.894a5.182 5.182 0 0 1 1.861-1.984c.781-.479 1.687-.722 2.69-.722 1.004 0 1.909.243 2.691.722a5.174 5.174 0 0 1 1.86 1.984c.453.84.683 1.813.683 2.894 0 1.07-.23 2.04-.683 2.885zm.683-19.702v10.282a7.903 7.903 0 0 0-2.146-1.357c-1.018-.437-2.137-.658-3.324-.658-1.567 0-2.99.374-4.231 1.112a8 8 0 0 0-2.94 3.047c-.707 1.282-1.065 2.76-1.065 4.39 0 1.632.358 3.108 1.066 4.39a7.996 7.996 0 0 0 2.939 3.048c1.24.738 2.664 1.112 4.23 1.112 1.221 0 2.368-.235 3.407-.7a7.948 7.948 0 0 0 2.215-1.462l.118 1.844h2.891V1.361h-3.16zm37.714 25.048h-3.16v-8.93c0-1.47-.393-2.67-1.168-3.567-.776-.897-1.761-1.334-3.011-1.334-.835 0-1.59.208-2.247.617a4.494 4.494 0 0 0-1.572 1.685c-.384.707-.579 1.527-.579 2.439v9.09h-3.16V9.945h2.891l.115 1.954a6.893 6.893 0 0 1 1.916-1.516c.94-.502 2.003-.756 3.156-.756 1.318 0 2.506.328 3.529.974 1.02.644 1.833 1.545 2.416 2.676.58 1.128.874 2.434.874 3.883v9.249zm5.806-9.691a5.358 5.358 0 0 1 1.672-2.884c.93-.833 2.07-1.256 3.39-1.256 1.297 0 2.41.417 3.31 1.238.826.758 1.373 1.732 1.628 2.902h-10zm13.33 1.444c0-1.643-.356-3.123-1.06-4.399a7.905 7.905 0 0 0-2.922-3.031c-1.236-.733-2.673-1.105-4.27-1.105-1.597 0-3.048.372-4.315 1.103a8.05 8.05 0 0 0-3.002 3.022c-.726 1.273-1.093 2.735-1.093 4.346 0 1.655.392 3.154 1.165 4.454a8.265 8.265 0 0 0 3.22 3.068c1.359.735 2.93 1.107 4.67 1.107 1.084 0 2.223-.186 3.385-.553 1.17-.37 2.355-1.056 3.523-2.04l.208-.177-1.885-2.431-.224.213a6.953 6.953 0 0 1-2.484 1.552c-2.542.899-4.748.53-6.353-.81a5.475 5.475 0 0 1-1.856-2.972h13.293v-1.347zM109.507 26.409h3.239V1.361h-3.239zM120.751 26.409h-3.16V12.896h-2.6v-2.95h2.6V7.24c0-1.645.47-2.995 1.397-4.015.933-1.026 2.158-1.546 3.641-1.546.649 0 1.253.1 1.796.294.54.195 1.026.458 1.447.781l.179.138-1.288 2.802-.284-.338c-.41-.49-.928-.726-1.582-.726-.623 0-1.123.233-1.528.711-.41.486-.618 1.125-.618 1.9v2.704h4.223v2.95h-4.223V26.41zM127.897 26.409h3.176V9.945h-3.176zM129.469 7.635c-.59 0-1.09-.205-1.484-.609-.393-.403-.592-.909-.592-1.502 0-.606.2-1.115.594-1.512.394-.398.893-.6 1.482-.6.599 0 1.105.201 1.505.598.4.398.603.908.603 1.514 0 .594-.202 1.1-.602 1.503-.4.404-.906.608-1.506.608m19.692 18.774h-3.16v-8.93c0-1.47-.393-2.67-1.168-3.567-.776-.897-1.761-1.334-3.011-1.334-.835 0-1.59.208-2.247.617a4.494 4.494 0 0 0-1.572 1.685c-.384.707-.58 1.527-.58 2.439v9.09h-3.16V9.945h2.892l.115 1.954a6.893 6.893 0 0 1 1.916-1.516c.94-.502 2.003-.756 3.156-.756 1.318 0 2.506.328 3.529.974 1.02.644 1.833 1.545 2.416 2.676.58 1.128.874 2.434.874 3.883v9.249zM66.65 19.64c0 .767-.202 1.47-.6 2.087a4.391 4.391 0 0 1-1.646 1.494c-.69.368-1.484.555-2.358.555-.95 0-1.716-.225-2.277-.67-.548-.435-.814-.997-.814-1.717 0-.794.334-1.395 1.02-1.836.717-.46 1.743-.695 3.047-.695 1.221 0 2.44.188 3.628.56v.222zm1.276-8.067c-1.252-1.291-2.944-1.945-5.03-1.945a10.67 10.67 0 0 0-2.846.367c-.876.243-1.865.654-2.94 1.223l-.23.122 1.173 2.724.272-.156c1.535-.882 2.973-1.33 4.272-1.33 1.262 0 2.263.363 2.977 1.079.678.679 1.038 1.621 1.073 2.802a13.82 13.82 0 0 0-3.86-.552c-2.133 0-3.857.493-5.125 1.465-1.291.99-1.946 2.341-1.946 4.017 0 1.583.57 2.886 1.695 3.87 1.114.974 2.578 1.468 4.351 1.468 1.226 0 2.325-.248 3.264-.739a5.82 5.82 0 0 0 1.781-1.418l.111 1.839h2.892v-9.662c0-2.144-.633-3.885-1.884-5.174z"/><path fill="#FFF" fill-rule="nonzero" d="M6.085 44.15c.756 0 1.34-.167 1.753-.499.412-.332.618-.803.618-1.414 0-.595-.178-1.018-.533-1.27-.355-.252-.919-.44-1.69-.561-.47-.084-.79-.18-.965-.286a.527.527 0 0 1-.26-.481c0-.214.082-.386.249-.515.166-.13.397-.195.692-.195.318 0 .558.065.72.195.163.13.275.332.335.606h1.27c-.128-1.206-.903-1.808-2.325-1.808-.605 0-1.127.158-1.566.475-.438.316-.658.757-.658 1.322 0 .557.16.967.477 1.23.317.264.873.46 1.668.59.46.076.788.174.98.292.194.118.29.296.29.532 0 .512-.355.767-1.066.767-.386 0-.67-.08-.851-.24-.182-.16-.291-.4-.33-.721H3.6c.03.633.261 1.122.693 1.465.43.343 1.028.515 1.792.515zm4.947-.115v-3.583c0-.435.126-.773.38-1.014.253-.24.561-.36.924-.36.704 0 1.055.42 1.055 1.26v3.697h1.373v-3.583c0-.435.127-.773.38-1.014.254-.24.562-.36.925-.36.703 0 1.055.42 1.055 1.26v3.697h1.373v-3.79c0-.778-.184-1.36-.55-1.745-.367-.386-.842-.578-1.424-.578-.394 0-.772.091-1.135.274-.363.183-.654.45-.873.802-.288-.718-.847-1.076-1.68-1.076-.415 0-.782.099-1.1.297a1.882 1.882 0 0 0-.703.744v-.916H9.659v5.988h1.373zm10.596.114c.787 0 1.392-.282 1.815-.847v.733h1.35v-3.927c0-1.458-.79-2.186-2.37-2.186-.712 0-1.3.164-1.765.492-.465.328-.724.824-.777 1.488h1.327c.068-.626.447-.939 1.135-.939.393 0 .671.098.834.292.162.195.244.498.244.91v.31h-.738c-.923 0-1.66.152-2.212.457-.552.306-.828.786-.828 1.443 0 .595.185 1.04.556 1.333.37.294.847.441 1.43.441zm.33-.996c-.636 0-.954-.278-.954-.835 0-.65.571-.974 1.713-.974h.704v.596c0 .374-.136.67-.409.887-.272.217-.624.326-1.055.326zm5.785.882V40.92c0-.603.16-1.03.482-1.282.322-.252.804-.382 1.447-.39v-1.293c-.893.008-1.535.412-1.929 1.213v-1.122H26.37v5.988h1.373zm5.264.103c.356 0 .666-.05.93-.15V42.89a1.73 1.73 0 0 1-.669.114c-.453 0-.68-.255-.68-.767V39.09h1.304v-1.042h-1.304v-1.316h-1.373v1.316h-.794v1.042h.794v3.274c0 .573.153 1.012.46 1.317.306.305.75.458 1.332.458zm5.571-7.075c.227 0 .42-.076.579-.229a.748.748 0 0 0 .238-.56c0-.23-.08-.42-.238-.573a.804.804 0 0 0-.579-.23.804.804 0 0 0-.579.23.761.761 0 0 0-.238.572c0 .221.08.408.238.561a.804.804 0 0 0 .579.229zm.703 6.972v-5.988H37.91v5.988h1.372zm3.04 0v-3.526c0-.458.131-.811.392-1.06.261-.247.596-.371 1.004-.371.409 0 .708.107.897.32.189.214.283.546.283.996v3.64h1.373v-3.766c0-.793-.181-1.383-.545-1.768-.363-.386-.858-.578-1.486-.578-.461 0-.858.1-1.191.303-.333.202-.575.46-.726.773v-.95h-1.373v5.987h1.373zm8.453 0 2.144-5.988h-1.35l-1.531 4.568-1.555-4.568h-1.474l2.166 5.988h1.6zm5.321.114c.764 0 1.384-.168 1.86-.504.477-.335.765-.816.863-1.442H57.49c-.106.61-.56.916-1.362.916-.507 0-.9-.153-1.18-.458-.28-.305-.43-.744-.454-1.317h4.346v-.4c0-1.008-.267-1.763-.8-2.267s-1.2-.755-2.003-.755c-.854 0-1.56.286-2.116.858-.555.573-.833 1.317-.833 2.232v.092c0 .931.28 1.671.84 2.22.559.55 1.281.825 2.166.825zm1.384-3.732h-2.96c.067-.465.235-.83.504-1.093.268-.263.607-.395 1.015-.395.893 0 1.373.496 1.441 1.488zm4.731 3.732c.757 0 1.34-.166 1.753-.498.412-.332.618-.803.618-1.414 0-.595-.177-1.018-.533-1.27-.355-.252-.919-.44-1.69-.561-.47-.084-.79-.18-.965-.286a.527.527 0 0 1-.26-.481c0-.214.083-.386.249-.515.166-.13.397-.195.692-.195.318 0 .558.065.72.195.163.13.275.332.335.606h1.27c-.128-1.206-.903-1.808-2.325-1.808-.605 0-1.127.158-1.566.475-.438.316-.658.757-.658 1.322 0 .557.16.967.477 1.23.318.264.873.46 1.668.59.461.076.788.174.981.292.193.118.29.296.29.532 0 .512-.356.767-1.067.767-.386 0-.67-.08-.851-.24-.182-.16-.291-.4-.33-.721h-1.292c.03.633.26 1.122.692 1.465.43.343 1.028.515 1.792.515zm5.593-.011c.356 0 .666-.05.93-.15V42.89a1.73 1.73 0 0 1-.669.114c-.453 0-.68-.255-.68-.767V39.09h1.304v-1.042h-1.304v-1.316H66.01v1.316h-.794v1.042h.794v3.274c0 .573.153 1.012.46 1.317.306.305.75.458 1.332.458zm2.87-7.075c.228 0 .42-.076.58-.229a.748.748 0 0 0 .238-.56c0-.23-.08-.42-.239-.573a.804.804 0 0 0-.578-.23.804.804 0 0 0-.579.23.761.761 0 0 0-.238.572c0 .221.08.408.238.561a.804.804 0 0 0 .579.229zm.704 6.972v-5.988h-1.373v5.988h1.373zm3.04 0v-3.526c0-.458.131-.811.392-1.06.261-.247.596-.371 1.004-.371.409 0 .707.107.896.32.19.214.284.546.284.996v3.64h1.373v-3.766c0-.793-.182-1.383-.545-1.768-.363-.386-.858-.578-1.486-.578-.461 0-.858.1-1.191.303-.333.202-.575.46-.726.773v-.95h-1.373v5.987h1.373zm8.056 2.198c.938 0 1.673-.225 2.207-.676.533-.45.803-1.106.81-1.969v-5.54h-1.372v.915c-.393-.694-1.029-1.041-1.906-1.041-.764 0-1.4.28-1.906.841-.507.56-.76 1.261-.76 2.1v.08c0 .848.25 1.535.749 2.061.499.527 1.127.79 1.883.79.416 0 .8-.108 1.151-.326.352-.217.615-.479.789-.784v.881c0 1.076-.552 1.614-1.656 1.614-.855 0-1.343-.312-1.464-.938h-1.384c.083.61.36 1.095.828 1.454.469.358 1.146.538 2.03.538zm.045-3.503c-.454 0-.828-.164-1.123-.493-.295-.328-.442-.763-.442-1.305v-.091c0-.55.143-.992.43-1.328.288-.336.681-.504 1.18-.504.492 0 .882.16 1.17.48.287.321.43.764.43 1.329v.08c0 .565-.153 1.011-.46 1.34-.305.328-.7.492-1.185.492zm8.68 1.305v-3.583c0-.435.126-.773.38-1.014.253-.24.561-.36.924-.36.703 0 1.055.42 1.055 1.26v3.697h1.373v-3.583c0-.435.127-.773.38-1.014.253-.24.562-.36.925-.36.703 0 1.055.42 1.055 1.26v3.697h1.373v-3.79c0-.778-.184-1.36-.55-1.745-.367-.386-.842-.578-1.424-.578-.394 0-.772.091-1.135.274-.363.183-.654.45-.874.802-.287-.718-.847-1.076-1.679-1.076-.416 0-.783.099-1.1.297a1.882 1.882 0 0 0-.704.744v-.916h-1.372v5.988h1.372zm10.596.114c.786 0 1.392-.282 1.815-.847v.733h1.35v-3.927c0-1.458-.79-2.186-2.371-2.186-.71 0-1.299.164-1.764.492-.465.328-.724.824-.777 1.488h1.327c.068-.626.446-.939 1.135-.939.393 0 .67.098.834.292.162.195.243.498.243.91v.31h-.737c-.923 0-1.66.152-2.212.457-.552.306-.829.786-.829 1.443 0 .595.186 1.04.556 1.333.371.294.847.441 1.43.441zm.329-.996c-.635 0-.953-.278-.953-.835 0-.65.57-.974 1.713-.974h.703v.596c0 .374-.136.67-.408.887-.272.217-.624.326-1.055.326zm6.637.996c.416 0 .804-.109 1.163-.326.359-.218.622-.483.788-.796v1.008h1.373v-8.758h-1.373v3.686c-.385-.694-1.017-1.041-1.894-1.041-.78 0-1.419.284-1.918.852-.499.569-.749 1.326-.749 2.273v.091c0 .947.242 1.685.727 2.216.484.53 1.111.795 1.883.795zm.34-1.099c-.461 0-.834-.166-1.117-.498-.284-.332-.426-.815-.426-1.448v-.092c0-.64.14-1.135.42-1.482.28-.347.673-.52 1.18-.52.507 0 .9.165 1.18.497.28.332.42.822.42 1.471v.092c0 .648-.152 1.14-.454 1.476-.303.336-.704.504-1.203.504zm7.227 1.1c.764 0 1.384-.169 1.86-.505.477-.335.765-.816.863-1.442h-1.327c-.106.61-.56.916-1.362.916-.507 0-.9-.153-1.18-.458-.28-.305-.43-.744-.453-1.317h4.345v-.4c0-1.008-.267-1.763-.8-2.267s-1.2-.755-2.003-.755c-.854 0-1.56.286-2.115.858-.556.573-.834 1.317-.834 2.232v.092c0 .931.28 1.671.84 2.22.559.55 1.281.825 2.166.825zm1.384-3.733h-2.96c.067-.465.236-.83.504-1.093.269-.263.607-.395 1.015-.395.893 0 1.373.496 1.441 1.488zm7.897 3.732c.764 0 1.384-.168 1.86-.504.477-.335.764-.816.862-1.442h-1.327c-.106.61-.56.916-1.361.916-.507 0-.9-.153-1.18-.458-.28-.305-.431-.744-.454-1.317h4.345v-.4c0-1.008-.266-1.763-.8-2.267-.533-.504-1.2-.755-2.002-.755-.855 0-1.56.286-2.116.858-.556.573-.834 1.317-.834 2.232v.092c0 .931.28 1.671.84 2.22.56.55 1.282.825 2.167.825zm1.384-3.732h-2.961c.068-.465.236-.83.504-1.093.269-.263.607-.395 1.016-.395.892 0 1.373.496 1.44 1.488zm4.254 3.732c.787 0 1.392-.282 1.815-.847v.733h1.35v-3.927c0-1.458-.79-2.186-2.37-2.186-.712 0-1.3.164-1.765.492-.465.328-.724.824-.777 1.488h1.327c.069-.626.447-.939 1.135-.939.393 0 .671.098.834.292.162.195.244.498.244.91v.31h-.738c-.922 0-1.66.152-2.212.457-.552.306-.828.786-.828 1.443 0 .595.185 1.04.556 1.333.37.294.847.441 1.43.441zm.33-.996c-.636 0-.954-.278-.954-.835 0-.65.571-.974 1.713-.974h.704v.596c0 .374-.136.67-.409.887-.272.217-.624.326-1.055.326zm6.443.996c.757 0 1.341-.166 1.753-.498.412-.332.619-.803.619-1.414 0-.595-.178-1.018-.534-1.27-.355-.252-.919-.44-1.69-.561-.47-.084-.79-.18-.964-.286a.527.527 0 0 1-.261-.481c0-.214.083-.386.25-.515.166-.13.396-.195.691-.195.318 0 .558.065.72.195.163.13.275.332.335.606h1.271c-.129-1.206-.904-1.808-2.326-1.808-.605 0-1.127.158-1.565.475-.44.316-.658.757-.658 1.322 0 .557.158.967.476 1.23.318.264.874.46 1.668.59.461.076.788.174.981.292.193.118.29.296.29.532 0 .512-.356.767-1.067.767-.386 0-.67-.08-.85-.24-.182-.16-.292-.4-.33-.721h-1.293c.03.633.26 1.122.692 1.465.43.343 1.028.515 1.792.515zm5.242 1.935 3.233-8.037h-1.338l-1.453 3.858-1.577-3.858h-1.486l2.349 5.381-1.078 2.656h1.35z"/></g></g></svg>