<svg width="16" height="16" fill="none" xmlns="http://www.w3.org/2000/svg"><rect width="16" height="16" rx="3" fill="#fff"/><mask id="a" style="mask-type:luminance" maskUnits="userSpaceOnUse" x="1" y="2" width="14" height="12"><path fill-rule="evenodd" clip-rule="evenodd" d="M1.559 2.229h13v11.63h-13V2.229z" fill="#fff"/></mask><g mask="url(#a)"><path fill-rule="evenodd" clip-rule="evenodd" d="M10.421 12.85a.39.39 0 0 1 .388-.39.39.39 0 0 1 .387.39.39.39 0 0 1-.387.391.39.39 0 0 1-.387-.39zm0-9.613a.39.39 0 0 1 .388-.391.39.39 0 0 1 .387.391c0 .216-.173.39-.387.39a.39.39 0 0 1-.387-.39zm-8.25 4.807c0-.216.173-.391.388-.391.213 0 .387.175.387.39a.39.39 0 0 1-.387.392.39.39 0 0 1-.388-.391zm11 0c0-.216.174-.391.388-.391.214 0 .388.175.388.39a.39.39 0 0 1-.388.392.39.39 0 0 1-.387-.391zm-8.25 4.806c0-.216.174-.39.388-.39a.39.39 0 0 1 .387.39.39.39 0 0 1-.387.391.39.39 0 0 1-.388-.39zm0-9.613a.39.39 0 0 1 .388-.391.39.39 0 0 1 .387.391c0 .216-.173.39-.387.39a.389.389 0 0 1-.388-.39zm2.75 4.807a.39.39 0 0 1 .388-.391c.214 0 .387.175.387.39a.39.39 0 0 1-.387.392.39.39 0 0 1-.388-.391zm-4.345-.646a1.01 1.01 0 0 1 0 1.291l1.813 3.167a.99.99 0 0 1 .339 0L7.29 8.689a1.01 1.01 0 0 1 0-1.29L5.583 4.415l-.105-.184a1.005 1.005 0 0 1-.34 0L3.327 7.398zM10.98 4.23a1.001 1.001 0 0 1-1.108-.644H6.246c-.04.108-.097.208-.169.295L7.89 7.049a1.001 1.001 0 0 1 1.107.644h3.625a1.01 1.01 0 0 1 .17-.295L10.98 4.23zm.598 7.973c.145.175.231.4.231.646 0 .557-.447 1.009-1 1.009a1 1 0 0 1-.937-.66H6.246a1 1 0 0 1-.938.66c-.552 0-1-.452-1-1.009 0-.245.088-.47.232-.646L2.73 9.038a1.004 1.004 0 0 1-1.17-.994 1.004 1.004 0 0 1 1.17-.994L4.54 3.883a1.01 1.01 0 0 1-.231-.646c0-.557.447-1.008 1-1.008a1 1 0 0 1 .937.658h3.625a1 1 0 0 1 .938-.658c.552 0 1 .451 1 1.008 0 .246-.087.471-.232.646l1.812 3.167a1.004 1.004 0 0 1 1.17.994 1.004 1.004 0 0 1-1.17.994l-1.812 3.166zm1.044-3.81H8.997a1 1 0 0 1-1.108.644l-1.812 3.167c.072.087.13.187.17.296H9.87a1 1 0 0 1 1.108-.645l1.812-3.167a1.01 1.01 0 0 1-.17-.296z" fill="#233253"/></g></svg>