<svg width="14" height="14" viewBox="0 0 14 14" fill="none" xmlns="http://www.w3.org/2000/svg">
<path fill-rule="evenodd" clip-rule="evenodd" d="M7 0C3.13611 0 0 3.13611 0 7C0 10.8639 3.13611 14 7 14C10.8639 14 14 10.8639 14 7C14 3.13611 10.8705 0 7 0ZM6.82139 2.99715C7.01987 2.73912 7.27129 2.57371 7.56902 2.50093C7.87337 2.42815 8.14464 2.46785 8.37621 2.62664C8.61439 2.78543 8.74672 3.00377 8.77318 3.29488C8.79965 3.586 8.72025 3.85727 8.52176 4.1153C8.32328 4.37333 8.07848 4.53212 7.77413 4.6049C7.46978 4.67768 7.19851 4.63798 6.96033 4.47919C6.72214 4.32702 6.58982 4.10207 6.56335 3.81095C6.5435 3.53307 6.62952 3.25519 6.82139 2.99715ZM6.90818 11.4792C7.21914 11.4197 8.31744 10.7316 8.70118 10.4008C9.14447 10.0237 9.08493 9.51422 8.51593 9.77225C8.4421 9.8034 8.3576 9.84561 8.26929 9.88973C7.8511 10.0986 7.34723 10.3504 7.48379 9.67301C7.52349 9.50099 7.56319 9.34881 7.6095 9.20987L8.15203 7.49626C8.20496 7.33747 8.23804 7.16545 8.26451 6.98681C8.3836 6.38473 8.13218 5.63047 7.33823 5.78265C6.65014 5.91497 5.67094 6.56337 5.18795 7.04635C4.79098 7.44333 4.83729 7.83369 5.4923 7.44333C5.50406 7.43745 5.52169 7.42785 5.54388 7.41577C5.77125 7.29196 6.47797 6.90714 6.27302 7.58227C6.24821 7.69144 6.21595 7.80433 6.18184 7.92373C6.17046 7.96353 6.15889 8.00406 6.14731 8.04541L5.59816 9.75902C5.54523 9.93766 5.51215 10.0964 5.48568 10.2354C5.46583 10.3743 5.4526 10.5067 5.44598 10.639C5.43275 10.9698 5.55184 11.2146 5.80988 11.38C6.06791 11.5454 6.43181 11.5785 6.90818 11.4792Z" fill="white"/>
</svg>
